<svg xmlns="http://www.w3.org/2000/svg" xmlns:xlink="http://www.w3.org/1999/xlink" viewBox="0 0 700 700"><defs><style>.cls-1{fill:url(#linear-gradient);}.cls-2{fill:url(#linear-gradient-2);}.cls-3{fill:#fff;}</style><linearGradient id="linear-gradient" x1="365.44" y1="666.61" x2="336.47" y2="72.55" gradientUnits="userSpaceOnUse"><stop offset="0" stop-color="red"/><stop offset="0.03" stop-color="#ff0e0e"/><stop offset="0.1" stop-color="#ff2929"/><stop offset="0.17" stop-color="#ff3f3f"/><stop offset="0.26" stop-color="#ff5050"/><stop offset="0.37" stop-color="#ff5b5b"/><stop offset="0.53" stop-color="#ff6262"/><stop offset="0.96" stop-color="#ff6464"/></linearGradient><linearGradient id="linear-gradient-2" y1="350" x2="700" y2="350" gradientUnits="userSpaceOnUse"><stop offset="0" stop-color="red"/><stop offset="0.52" stop-color="#ff0202"/><stop offset="0.7" stop-color="#ff0909"/><stop offset="0.84" stop-color="#ff1414"/><stop offset="0.94" stop-color="#ff2525"/><stop offset="1" stop-color="#ff3232"/></linearGradient></defs><g id="Layer_2" data-name="Layer 2"><g id="Layer_1-2" data-name="Layer 1"><circle class="cls-1" cx="350" cy="350" r="350"/><path class="cls-2" d="M350,10A340.09,340.09,0,0,1,482.34,663.29,340.09,340.09,0,0,1,217.66,36.71,338,338,0,0,1,350,10m0-10C156.7,0,0,156.7,0,350S156.7,700,350,700,700,543.3,700,350,543.3,0,350,0Z"/><path class="cls-3" d="M319.2,290.45C259.66,289,204,280,158.83,261.79l7.14-54,109.4,2.75-2.89,21.92c16.41,4.35,32.7,6.08,54,6.61,19.84.5,36.48-.4,55.39-3.86l4.19-31.75L170.51,169.81l13.63-103.1C232.77,51.51,293.87,44.84,352,46.29,410,48.08,468.54,57.1,513.29,75l-7.14,54-109.39-2.74,2.9-21.93a263,263,0,0,0-54.44-7c-18.89-.47-38,.69-55.92,4.18l-3.94,29.79L500.91,165,487,270C438.34,285.55,379.71,292,319.2,290.45"/><path class="cls-3" d="M318.71,398.55l-90.29-74.12,2.63,226.29c-9.53-2.71-21.88-9.86-37.46-22.65l-39.94-32.79.87,75.28,42.34,34.76c49.14,40.34,92.94,63.93,125,66.41l-3.17-273.18"/><path class="cls-3" d="M494.46,274.39C434.74,311.32,377,361.19,338.91,407.62L342,673.69l101.16-62.56-2.61-224.75c14.63-15.29,30.64-28.52,54.71-43.4,24.5-15.15,40.59-21.36,54.48-24.12l2.6,224.75L654,480.78l-3.08-266.07c-39.49,1.12-97.59,23.31-156.41,59.68"/></g></g></svg>